# Blender v2.79 (sub 0) OBJ File: 'OffRampRight.blend'
# www.blender.org
o Plane_Plane.001
v -25.575001 0.000000 25.575001
v -20.625000 0.000000 25.575001
v -25.575001 0.000000 0.000385
v -20.625000 0.000000 0.000385
v -25.524559 0.000000 -1.605484
v -20.584328 0.000000 -1.294670
v -25.373384 0.000000 -3.205015
v -20.462418 0.000000 -2.584616
v -25.122074 0.000000 -4.791897
v -20.259752 0.000000 -3.864361
v -24.771616 0.000000 -6.359871
v -19.977131 0.000000 -5.128853
v -24.323397 0.000000 -7.902742
v -19.615667 0.000000 -6.373104
v -23.779184 0.000000 -9.414427
v -19.176792 0.000000 -7.592205
v -23.141127 0.000000 -10.888956
v -18.662233 0.000000 -8.781343
v -22.411741 0.000000 -12.320513
v -18.074024 0.000000 -9.935827
v -21.593906 0.000000 -13.703444
v -17.414486 0.000000 -11.051096
v -20.690851 0.000000 -15.032297
v -16.686218 0.000000 -12.122751
v -19.706137 0.000000 -16.301821
v -15.892100 0.000000 -13.146563
v -18.643654 0.000000 -17.507013
v -15.035263 0.000000 -14.118494
v -17.507591 0.000000 -18.643110
v -14.119088 0.000000 -15.034708
v -16.302435 0.000000 -19.705633
v -13.147192 0.000000 -15.891581
v -15.032941 0.000000 -20.690386
v -12.123410 0.000000 -16.685740
v -13.704117 0.000000 -21.593481
v -11.051783 0.000000 -17.414045
v -12.321211 0.000000 -22.411360
v -9.936539 0.000000 -18.073629
v -10.889679 0.000000 -23.140791
v -8.782081 0.000000 -18.661882
v -9.415171 0.000000 -23.778898
v -7.592962 0.000000 -19.176489
v -7.903503 0.000000 -24.323156
v -6.373880 0.000000 -19.615412
v -6.360645 0.000000 -24.771425
v -5.129642 0.000000 -19.976919
v -4.792685 0.000000 -25.121931
v -3.865160 0.000000 -20.259592
v -3.205811 0.000000 -25.373289
v -2.585424 0.000000 -20.462309
v -1.606283 0.000000 -25.524515
v -1.295485 0.000000 -20.584269
v 24.958891 0.000000 -25.575006
v 24.958879 0.000000 -20.624994
vt 0.000000 0.000000
vt 1.000000 0.000000
vt 1.000000 1.000000
vt 0.000000 1.000000
vt 0.000000 0.000000
vt 1.000000 0.000000
vt 1.000000 1.000000
vt 0.000000 1.000000
vt 0.000000 0.000000
vt 1.000000 0.000000
vt 1.000000 1.000000
vt 0.000000 1.000000
vt 0.000000 0.000000
vt 1.000000 0.000000
vt 1.000000 1.000000
vt 0.000000 1.000000
vt 0.000000 0.000000
vt 1.000000 0.000000
vt 1.000000 1.000000
vt 0.000000 1.000000
vt 0.000000 0.000000
vt 1.000000 0.000000
vt 1.000000 1.000000
vt 0.000000 1.000000
vt 0.000000 0.000000
vt 1.000000 0.000000
vt 1.000000 1.000000
vt 0.000000 1.000000
vt 0.000000 0.000000
vt 1.000000 0.000000
vt 1.000000 1.000000
vt 0.000000 1.000000
vt 0.000000 0.000000
vt 1.000000 0.000000
vt 1.000000 1.000000
vt 0.000000 1.000000
vt 0.000000 0.000000
vt 1.000000 0.000000
vt 1.000000 1.000000
vt 0.000000 1.000000
vt 0.000000 0.000000
vt 1.000000 0.000000
vt 1.000000 1.000000
vt 0.000000 1.000000
vt 0.000000 0.000000
vt 1.000000 0.000000
vt 1.000000 1.000000
vt 0.000000 1.000000
vt 0.000000 0.000000
vt 1.000000 0.000000
vt 1.000000 1.000000
vt 0.000000 1.000000
vt 0.000000 0.000000
vt 1.000000 0.000000
vt 1.000000 1.000000
vt 0.000000 1.000000
vt 0.000000 0.000000
vt 1.000000 0.000000
vt 1.000000 1.000000
vt 0.000000 1.000000
vt 0.000000 0.000000
vt 1.000000 0.000000
vt 1.000000 1.000000
vt 0.000000 1.000000
vt 0.000000 0.000000
vt 1.000000 0.000000
vt 1.000000 1.000000
vt 0.000000 1.000000
vt 0.000000 0.000000
vt 1.000000 0.000000
vt 1.000000 1.000000
vt 0.000000 1.000000
vt 0.000000 0.000000
vt 1.000000 0.000000
vt 1.000000 1.000000
vt 0.000000 1.000000
vt 0.000000 0.000000
vt 1.000000 0.000000
vt 1.000000 1.000000
vt 0.000000 1.000000
vt 0.000000 0.000000
vt 1.000000 0.000000
vt 1.000000 1.000000
vt 0.000000 1.000000
vt 0.000000 0.000000
vt 1.000000 0.000000
vt 1.000000 1.000000
vt 0.000000 1.000000
vt 0.000000 0.000000
vt 1.000000 0.000000
vt 1.000000 1.000000
vt 0.000000 1.000000
vt 0.000000 0.000000
vt 1.000000 0.000000
vt 1.000000 1.000000
vt 0.000000 1.000000
vt 0.000000 0.000000
vt 1.000000 0.000000
vt 1.000000 1.000000
vt 0.000000 1.000000
vt 0.000000 0.000000
vt 1.000000 0.000000
vt 1.000000 1.000000
vt 0.000000 1.000000
vn 0.0000 1.0000 0.0000
s off
f 1/1/1 2/2/1 4/3/1 3/4/1
f 3/5/1 4/6/1 6/7/1 5/8/1
f 5/9/1 6/10/1 8/11/1 7/12/1
f 7/13/1 8/14/1 10/15/1 9/16/1
f 9/17/1 10/18/1 12/19/1 11/20/1
f 11/21/1 12/22/1 14/23/1 13/24/1
f 13/25/1 14/26/1 16/27/1 15/28/1
f 15/29/1 16/30/1 18/31/1 17/32/1
f 17/33/1 18/34/1 20/35/1 19/36/1
f 19/37/1 20/38/1 22/39/1 21/40/1
f 21/41/1 22/42/1 24/43/1 23/44/1
f 23/45/1 24/46/1 26/47/1 25/48/1
f 25/49/1 26/50/1 28/51/1 27/52/1
f 27/53/1 28/54/1 30/55/1 29/56/1
f 29/57/1 30/58/1 32/59/1 31/60/1
f 31/61/1 32/62/1 34/63/1 33/64/1
f 33/65/1 34/66/1 36/67/1 35/68/1
f 35/69/1 36/70/1 38/71/1 37/72/1
f 37/73/1 38/74/1 40/75/1 39/76/1
f 39/77/1 40/78/1 42/79/1 41/80/1
f 41/81/1 42/82/1 44/83/1 43/84/1
f 43/85/1 44/86/1 46/87/1 45/88/1
f 45/89/1 46/90/1 48/91/1 47/92/1
f 47/93/1 48/94/1 50/95/1 49/96/1
f 49/97/1 50/98/1 52/99/1 51/100/1
f 51/101/1 52/102/1 54/103/1 53/104/1
